<svg width="1500" height="566" viewBox="0 0 1500 566" fill="none" xmlns="http://www.w3.org/2000/svg">
<rect width="566" height="566" rx="100" fill="url(#paint0_linear_4_28)"/>
<line x1="133.421" y1="246.082" x2="105.422" y2="438.082" stroke="white" stroke-width="15"/>
<line x1="166.049" y1="223.281" x2="312.393" y2="200.125" stroke="white" stroke-width="15"/>
<line x1="464.503" y1="96.3779" x2="354.282" y2="193.632" stroke="url(#paint1_linear_4_28)" stroke-width="15"/>
<line x1="298.606" y1="442.743" x2="334.885" y2="229.431" stroke="white" stroke-width="15"/>
<line x1="257.817" y1="475.498" x2="134.817" y2="472.498" stroke="white" stroke-width="15"/>
<path d="M131.5 468.5C131.5 483.865 118.839 496.5 103 496.5C87.1606 496.5 74.5 483.865 74.5 468.5C74.5 453.135 87.1606 440.5 103 440.5C118.839 440.5 131.5 453.135 131.5 468.5Z" stroke="white" stroke-width="15"/>
<circle cx="289.5" cy="472.5" r="28" stroke="white" stroke-width="15"/>
<circle cx="143.139" cy="224.205" r="23.0656" stroke="white" stroke-width="15"/>
<circle cx="336.721" cy="207.533" r="23.0656" stroke="white" stroke-width="15"/>
<path d="M460.541 52L472.549 84.451L505 96.459L472.549 108.467L460.541 140.918L448.533 108.467L416.082 96.459L448.533 84.451L460.541 52Z" fill="url(#paint2_linear_4_28)" stroke="white" stroke-width="6"/>
<rect x="200.651" y="81.5" width="21" height="21" transform="rotate(-45 200.651 81.5)" fill="white"/>
<rect x="175.686" y="331" width="16" height="16" transform="rotate(-45 175.686 331)" fill="white"/>
<rect x="408.686" y="275" width="16" height="16" transform="rotate(-45 408.686 275)" fill="white"/>
<rect x="453.686" y="433" width="16" height="16" transform="rotate(-45 453.686 433)" fill="white"/>
<rect x="499.308" y="326.006" width="12.3005" height="12.3005" transform="rotate(-45 499.308 326.006)" fill="white"/>
<rect x="50" y="207.698" width="12.3005" height="12.3005" transform="rotate(-45 50 207.698)" fill="white"/>
<path d="M692.75 427.909V137H771.727V364.273H889.341V427.909H692.75Z" fill="url(#paint3_linear_4_28)"/>
<path d="M942.786 509.727C933.789 509.727 925.219 509.017 917.075 507.597C908.931 506.271 901.782 504.424 895.626 502.057L912.672 446.375C919.111 448.648 924.982 450.116 930.286 450.778C935.683 451.441 940.276 451.062 944.064 449.642C947.947 448.222 950.74 445.523 952.445 441.545L954.149 437.568L877.445 209.727H959.263L994.49 360.864H996.763L1032.56 209.727H1114.94L1035.4 446.091C1031.42 458.117 1025.65 468.913 1018.07 478.477C1010.59 488.136 1000.74 495.759 988.524 501.347C976.308 506.934 961.062 509.727 942.786 509.727Z" fill="url(#paint4_linear_4_28)"/>
<path d="M1137.25 427.909V209.727H1213.38V251.205H1215.65C1219.63 235.864 1225.93 224.642 1234.55 217.54C1243.26 210.438 1253.44 206.886 1265.09 206.886C1268.5 206.886 1271.86 207.17 1275.17 207.739C1278.58 208.212 1281.85 208.922 1284.97 209.869V276.773C1281.09 275.447 1276.31 274.453 1270.63 273.79C1264.94 273.127 1260.07 272.795 1256 272.795C1248.33 272.795 1241.41 274.547 1235.26 278.051C1229.2 281.46 1224.41 286.29 1220.91 292.54C1217.41 298.695 1215.65 305.939 1215.65 314.273V427.909H1137.25Z" fill="url(#paint5_linear_4_28)"/>
<path d="M1361.32 431.318C1347.4 431.318 1335.09 429.045 1324.39 424.5C1313.78 419.86 1305.45 412.852 1299.39 403.477C1293.33 394.102 1290.3 382.17 1290.3 367.682C1290.3 355.75 1292.34 345.57 1296.41 337.142C1300.48 328.619 1306.16 321.659 1313.45 316.261C1320.74 310.864 1329.22 306.744 1338.88 303.903C1348.63 301.063 1359.14 299.216 1370.41 298.364C1382.63 297.417 1392.43 296.28 1399.82 294.955C1407.3 293.534 1412.7 291.593 1416.01 289.131C1419.32 286.574 1420.98 283.212 1420.98 279.045V278.477C1420.98 272.795 1418.8 268.439 1414.45 265.409C1410.09 262.379 1404.5 260.864 1397.69 260.864C1390.21 260.864 1384.1 262.521 1379.36 265.835C1374.72 269.055 1371.93 274.027 1370.98 280.75H1298.82C1299.77 267.492 1303.98 255.277 1311.46 244.102C1319.04 232.833 1330.07 223.837 1344.56 217.114C1359.05 210.295 1377.14 206.886 1398.82 206.886C1414.45 206.886 1428.46 208.733 1440.87 212.426C1453.27 216.025 1463.83 221.091 1472.54 227.625C1481.26 234.064 1487.88 241.64 1492.43 250.352C1497.07 258.97 1499.39 268.345 1499.39 278.477V427.909H1426.1V397.227H1424.39C1420.03 405.371 1414.73 411.953 1408.48 416.972C1402.33 421.991 1395.27 425.636 1387.32 427.909C1379.46 430.182 1370.79 431.318 1361.32 431.318ZM1386.89 381.886C1392.86 381.886 1398.44 380.655 1403.65 378.193C1408.96 375.731 1413.26 372.18 1416.58 367.54C1419.89 362.9 1421.55 357.265 1421.55 350.636V332.455C1419.47 333.307 1417.24 334.112 1414.87 334.869C1412.6 335.627 1410.14 336.337 1407.49 337C1404.93 337.663 1402.18 338.278 1399.25 338.847C1396.41 339.415 1393.42 339.936 1390.3 340.409C1384.24 341.356 1379.27 342.919 1375.38 345.097C1371.6 347.18 1368.76 349.784 1366.86 352.909C1365.06 355.939 1364.16 359.348 1364.16 363.136C1364.16 369.197 1366.29 373.837 1370.56 377.057C1374.82 380.277 1380.26 381.886 1386.89 381.886Z" fill="url(#paint6_linear_4_28)"/>
<defs>
<linearGradient id="paint0_linear_4_28" x1="566" y1="0" x2="0" y2="566" gradientUnits="userSpaceOnUse">
<stop stop-color="#FFC700"/>
<stop offset="1" stop-color="#FF00E5"/>
</linearGradient>
<linearGradient id="paint1_linear_4_28" x1="404.43" y1="139.381" x2="403.769" y2="138.631" gradientUnits="userSpaceOnUse">
<stop stop-color="white"/>
<stop offset="1" stop-color="#E1E1E1"/>
</linearGradient>
<linearGradient id="paint2_linear_4_28" x1="460.541" y1="52" x2="460.541" y2="140.918" gradientUnits="userSpaceOnUse">
<stop stop-color="#FFC700"/>
<stop offset="1" stop-color="#FF00E5"/>
</linearGradient>
<linearGradient id="paint3_linear_4_28" x1="693" y1="137" x2="1499" y2="510" gradientUnits="userSpaceOnUse">
<stop stop-color="#FFC700"/>
<stop offset="1" stop-color="#FF00E5"/>
</linearGradient>
<linearGradient id="paint4_linear_4_28" x1="693" y1="137" x2="1499" y2="510" gradientUnits="userSpaceOnUse">
<stop stop-color="#FFC700"/>
<stop offset="1" stop-color="#FF00E5"/>
</linearGradient>
<linearGradient id="paint5_linear_4_28" x1="693" y1="137" x2="1499" y2="510" gradientUnits="userSpaceOnUse">
<stop stop-color="#FFC700"/>
<stop offset="1" stop-color="#FF00E5"/>
</linearGradient>
<linearGradient id="paint6_linear_4_28" x1="693" y1="137" x2="1499" y2="510" gradientUnits="userSpaceOnUse">
<stop stop-color="#FFC700"/>
<stop offset="1" stop-color="#FF00E5"/>
</linearGradient>
</defs>
</svg>
