<svg width="44" height="44" viewBox="0 0 44 44" fill="none" xmlns="http://www.w3.org/2000/svg">
<rect width="44" height="44" rx="8" fill="#37343C"/>
<path d="M24 12.2695V16.4001C24 16.9601 24 17.2401 24.109 17.4541C24.2049 17.6422 24.3578 17.7952 24.546 17.8911C24.7599 18.0001 25.0399 18.0001 25.6 18.0001H29.7305M26 23H18M26 27H18M20 19H18M24 12H18.8C17.1198 12 16.2798 12 15.638 12.327C15.0735 12.6146 14.6146 13.0735 14.327 13.638C14 14.2798 14 15.1198 14 16.8V27.2C14 28.8802 14 29.7202 14.327 30.362C14.6146 30.9265 15.0735 31.3854 15.638 31.673C16.2798 32 17.1198 32 18.8 32H25.2C26.8802 32 27.7202 32 28.362 31.673C28.9265 31.3854 29.3854 30.9265 29.673 30.362C30 29.7202 30 28.8802 30 27.2V18L24 12Z" stroke="#7F7D86" stroke-width="2" stroke-linecap="round" stroke-linejoin="round"/>
</svg>
