<svg width="993" height="500" viewBox="0 0 993 500" fill="none" xmlns="http://www.w3.org/2000/svg">
<path fill-rule="evenodd" clip-rule="evenodd" d="M496.104 237.213H383.654C357.747 237.213 329.887 224 342.866 177.717C358.892 120.56 435.592 81.9002 496.104 81.9002C556.615 81.9002 633.315 120.558 649.341 177.717C662.33 223.998 634.461 237.213 608.553 237.213H496.104ZM51.4304 242.263C34.1895 242.156 0 245.886 0 266.055H992.188C992.188 245.886 957.998 242.148 940.757 242.255H922.025C888.082 242.004 854.999 240.122 826.308 232.415C757.528 213.931 749.524 179.134 714.896 129.562C674.547 71.8338 605.499 0 496.102 0C386.706 0 317.65 71.8183 277.29 129.577C242.662 179.134 234.657 213.932 165.877 232.431C137.194 240.138 104.112 242.019 70.1606 242.27L51.4304 242.263Z" fill="url(#paint0_linear_303_62)"/>
<path d="M734.954 293.578H660.723C660.723 324.243 621.485 430.266 496.102 430.266C370.72 430.266 331.481 324.243 331.481 293.578H257.234C257.234 342.439 314.157 500 496.094 500C678.016 500 734.954 342.439 734.954 293.578Z" fill="url(#paint1_linear_303_62)"/>
<defs>
<linearGradient id="paint0_linear_303_62" x1="992.187" y1="263.878" x2="-5.08253e-06" y2="263.878" gradientUnits="userSpaceOnUse">
<stop stop-color="#707070"/>
<stop offset="0.5" stop-color="white"/>
<stop offset="0.994792" stop-color="#707070"/>
</linearGradient>
<linearGradient id="paint1_linear_303_62" x1="496.094" y1="293.578" x2="496.094" y2="500" gradientUnits="userSpaceOnUse">
<stop stop-color="white" stop-opacity="0"/>
<stop offset="0.583333" stop-color="#F3F3F3"/>
</linearGradient>
</defs>
</svg>
