<svg width="145" height="25" viewBox="0 0 145 25" fill="none" xmlns="http://www.w3.org/2000/svg">
<g clip-path="url(#clip0_9_574)">
<path d="M94.0139 17.9251C95.8443 17.9251 97.5498 17.1763 97.8202 16.0115C97.9034 16.7603 98.3194 17.3219 98.9226 17.6131C99.4634 17.8835 100.129 17.9251 100.774 17.6755V15.8035C100.503 15.8659 100.212 15.8867 99.9834 15.6995C99.7546 15.5123 99.5882 15.0963 99.5882 14.3267V10.6452C99.5882 8.37798 97.8826 6.9636 94.9083 6.9636C92.3291 6.9636 90.3739 8.02438 90.1243 9.62596L92.1211 10.2084C92.2875 9.39717 93.2651 8.83557 94.7835 8.83557C96.2394 8.83557 97.3834 9.31397 97.3834 10.1044C97.3834 10.8531 96.3434 11.2067 93.7643 11.3939C91.3099 11.5811 89.8123 12.7667 89.8123 14.6803C89.8123 16.5731 91.2891 17.9251 94.0139 17.9251ZM94.0139 16.0739C92.7867 16.0739 92.0379 15.5539 92.0379 14.7011C92.0379 13.8899 92.7451 13.3283 93.8891 13.2451C95.8235 13.1203 97.009 12.8915 97.4042 12.4339C97.4042 14.6387 95.9899 16.0739 94.0139 16.0739Z" fill="#EFEDF0"/>
<path d="M83.517 7.03298C81.9038 7.03298 80.4461 7.79361 79.7269 8.96382C79.1633 7.7351 77.8805 7.05249 76.5005 7.03298C75.1205 7.03298 73.9543 7.7351 73.3324 8.8468V7.32553H71.2332V17.6547H73.3712V12.0063C73.3712 10.212 74.4597 9.04183 76.0146 9.04183C77.4917 9.04183 78.4247 10.134 78.4247 11.9478V17.6547H80.5627V11.9673C80.5627 10.1925 81.6317 9.04183 83.1866 9.04183C84.6443 9.04183 85.5773 10.056 85.5773 11.9088V17.6547H87.7153V11.5578C87.7153 10.173 87.3265 9.06134 86.5491 8.2617C85.7911 7.44255 84.7804 7.03298 83.517 7.03298Z" fill="#EFEDF0"/>
<path d="M35.3396 17.9251C38.6676 17.9251 40.914 15.6787 40.914 12.3715C40.914 9.08517 38.7092 6.9844 35.3396 6.9844C31.9701 6.9844 29.7445 9.10597 29.7445 12.3715C29.7445 15.6787 32.0325 17.9251 35.3396 17.9251ZM35.3396 15.9283C33.3429 15.9283 31.9701 14.4515 31.9701 12.3715C31.9701 10.3124 33.3013 8.98117 35.3396 8.98117C37.3988 8.98117 38.6884 10.3124 38.6884 12.3715C38.6884 14.4723 37.3364 15.9283 35.3396 15.9283Z" fill="#EFEDF0"/>
<path d="M50.7483 6.9636C49.022 6.9636 47.5452 7.67079 46.63 8.85637V7.1092H43.4684V8.91877H46.5884C45.9644 9.75076 45.6108 10.8115 45.6108 12.0387V15.8451H43.5308V17.6547H50.5611V15.8451H47.8572V11.9763C47.8572 10.3124 49.126 9.06437 50.7483 9.06437C52.0587 9.06437 52.9115 9.91716 53.1611 10.9779L55.1995 10.25C54.7627 8.27398 53.0987 6.9636 50.7483 6.9636Z" fill="#EFEDF0"/>
<path d="M61.7982 17.9251C63.6286 17.9251 65.3341 17.1763 65.6045 16.0115C65.6877 16.7603 66.1037 17.3219 66.7069 17.6131C67.2477 17.8835 67.9133 17.9251 68.5581 17.6755V15.8035C68.2877 15.8659 67.9965 15.8867 67.7677 15.6995C67.5389 15.5123 67.3725 15.0963 67.3725 14.3267V10.6452C67.3725 8.37798 65.6669 6.9636 62.6926 6.9636C60.1134 6.9636 58.1582 8.02438 57.9086 9.62596L59.9054 10.2084C60.0718 9.39717 61.0494 8.83557 62.5678 8.83557C64.0238 8.83557 65.1677 9.31397 65.1677 10.1044C65.1677 10.8531 64.1278 11.2067 61.5486 11.3939C59.0942 11.5811 57.5966 12.7667 57.5966 14.6803C57.5966 16.5731 59.0734 17.9251 61.7982 17.9251ZM61.7982 16.0739C60.571 16.0739 59.8222 15.5539 59.8222 14.7011C59.8222 13.8899 60.5294 13.3283 61.6734 13.2451C63.6078 13.1203 64.7933 12.8915 65.1885 12.4339C65.1885 14.6387 63.7742 16.0739 61.7982 16.0739Z" fill="#EFEDF0"/>
<g clip-path="url(#clip1_9_574)">
<path d="M22.0583 4.6907C21.872 4.43943 21.676 4.1957 21.471 3.96004L21.4821 4.25988L21.6889 4.70448L22.0583 4.6907Z" fill="#FB81B8"/>
<path fill-rule="evenodd" clip-rule="evenodd" d="M15.9265 5.19456C14.714 5.1386 13.4595 5.54589 12.5523 6.35144C12.5475 6.35579 12.5427 6.36011 12.5379 6.36443C10.7026 8.00567 10.5449 10.8255 12.1864 12.6598C12.8816 13.4367 12.8155 14.6301 12.0386 15.3254C11.2618 16.0206 10.0684 15.9545 9.37314 15.1776C6.34464 11.7933 6.63168 6.59774 10.0045 3.56523C10.0104 3.55975 10.0165 3.55431 10.0225 3.5489C11.7264 2.02402 13.9761 1.32505 16.1005 1.42313C18.2275 1.52131 20.4065 2.43551 21.779 4.35896C22.3845 5.20761 22.1875 6.3865 21.3389 6.99208C20.613 7.51004 19.6456 7.44084 19.002 6.87895C18.6367 6.37014 18.1934 5.93535 17.7515 5.69836C17.2401 5.4041 16.6189 5.22653 15.9265 5.19456Z" fill="url(#paint0_linear_9_574)"/>
<mask id="mask0_9_574" style="mask-type:alpha" maskUnits="userSpaceOnUse" x="7" y="1" width="16" height="15">
<path fill-rule="evenodd" clip-rule="evenodd" d="M15.9265 5.19454C14.714 5.13857 13.4595 5.54588 12.5523 6.35145C12.5475 6.3558 12.5427 6.36012 12.5379 6.36443C10.7026 8.00567 10.5449 10.8255 12.1864 12.6598C12.8816 13.4367 12.8155 14.6301 12.0386 15.3254C11.2618 16.0206 10.0684 15.9545 9.37315 15.1776C6.34461 11.7933 6.63166 6.59767 10.0046 3.56517C10.0105 3.55971 10.0165 3.55428 10.0225 3.54888C11.7264 2.024 13.9761 1.32503 16.1006 1.4231C18.2275 1.52129 20.4065 2.43548 21.779 4.35894C22.3846 5.20759 22.1875 6.38648 21.3389 6.99206C20.6131 7.51002 19.6456 7.44081 19.002 6.87894C18.6368 6.37012 18.1934 5.93532 17.7516 5.69834C17.2401 5.40407 16.619 5.22651 15.9265 5.19454Z" fill="url(#paint1_linear_9_574)"/>
</mask>
<g mask="url(#mask0_9_574)">
<g style="mix-blend-mode:multiply">
<path d="M10.1327 2.00051L3.71988 8.27149L15.4385 10.0932L20.1546 6.3904V3.90669L10.1327 2.00051Z" fill="url(#paint2_linear_9_574)"/>
</g>
</g>
<path fill-rule="evenodd" clip-rule="evenodd" d="M6.80116 3.36834C7.49608 4.1455 7.42943 5.33889 6.65229 6.03383C3.09986 9.21057 2.7955 14.6646 5.9723 18.2174C6.66722 18.9946 6.60058 20.188 5.82344 20.8829C5.0463 21.5779 3.85296 21.5112 3.15804 20.734C-1.40841 15.6271 -0.971164 7.78629 4.13576 3.21947C4.9129 2.52452 6.10624 2.59117 6.80116 3.36834Z" fill="url(#paint3_linear_9_574)"/>
<path fill-rule="evenodd" clip-rule="evenodd" d="M3.30692 18.0686C4.08406 17.3736 5.27739 17.4403 5.97231 18.2175C9.14892 21.77 14.6028 22.0744 18.1554 18.8975C18.9326 18.2025 20.1259 18.2692 20.8208 19.0463C21.5158 19.8235 21.4491 21.0169 20.672 21.7118C15.5653 26.2785 7.7247 25.8412 3.15805 20.7341C2.46313 19.9569 2.52978 18.7635 3.30692 18.0686Z" fill="url(#paint4_linear_9_574)"/>
<path fill-rule="evenodd" clip-rule="evenodd" d="M20.3283 5.37956C21.229 4.8546 22.3847 5.15925 22.9097 6.06C25.7727 10.9728 25.2032 17.6601 20.6738 21.7114C19.8968 22.4064 18.7034 22.3399 18.0084 21.5629C17.3134 20.7858 17.3799 19.5924 18.1569 18.8973C21.2036 16.1722 21.7107 11.5007 19.6479 7.96104C19.1229 7.06028 19.4276 5.90451 20.3283 5.37956Z" fill="url(#paint5_linear_9_574)"/>
<mask id="mask1_9_574" style="mask-type:alpha" maskUnits="userSpaceOnUse" x="17" y="5" width="8" height="18">
<path fill-rule="evenodd" clip-rule="evenodd" d="M20.3283 5.37954C21.229 4.85459 22.3847 5.15923 22.9097 6.05999C25.7727 10.9728 25.2032 17.66 20.6738 21.7114C19.8968 22.4064 18.7034 22.3399 18.0084 21.5628C17.3134 20.7858 17.3799 19.5924 18.1569 18.8973C21.2036 16.1721 21.7107 11.5007 19.6479 7.96102C19.1229 7.06027 19.4276 5.9045 20.3283 5.37954Z" fill="url(#paint6_linear_9_574)"/>
</mask>
<g mask="url(#mask1_9_574)">
<g style="mix-blend-mode:multiply">
<path d="M19.5769 13.1274L13.2628 19.7127L22.5182 22.3467L26.4866 12.7998L21.2577 1.4279L20.7908 10.9279L19.5769 13.1274Z" fill="url(#paint7_linear_9_574)"/>
</g>
</g>
<path fill-rule="evenodd" clip-rule="evenodd" d="M20.7079 3.18388L21.2598 3.79464L21.8132 4.40541C21.7996 4.38492 21.785 4.36373 21.7696 4.34193L21.8205 4.39655C21.7976 4.36629 21.7553 4.31349 21.6992 4.24566C21.4466 3.91051 21.0443 3.47422 20.7079 3.18388Z" fill="#F97CBF"/>
<path fill-rule="evenodd" clip-rule="evenodd" d="M9.52319 12.5116C10.3003 11.8167 11.4937 11.8833 12.1886 12.6605C13.8298 14.4958 16.6495 14.6535 18.4837 13.012C19.2606 12.3167 20.454 12.3829 21.1492 13.1598C21.8444 13.9367 21.7782 15.1301 21.0014 15.8253C17.6117 18.859 12.4046 18.5659 9.37435 15.1771C8.67942 14.3999 8.74606 13.2066 9.52319 12.5116Z" fill="url(#paint8_linear_9_574)"/>
<path fill-rule="evenodd" clip-rule="evenodd" d="M21.6492 4.19655C20.954 3.41966 19.7606 3.35348 18.9838 4.04874C18.311 4.65082 18.1712 5.62646 18.5973 6.3817C18.8314 6.63452 19.0489 6.92543 19.2352 7.23141C20.4355 9.04617 20.1547 11.516 18.4844 13.0097C17.7073 13.7046 17.6407 14.898 18.3356 15.6752C19.0305 16.4523 20.2239 16.519 21.001 15.824C24.3896 12.7937 24.6827 7.58639 21.6492 4.19655Z" fill="url(#paint9_linear_9_574)"/>
<path fill-rule="evenodd" clip-rule="evenodd" d="M18.4397 6.21973C15.7768 3.10541 10.1878 2.87421 6.65239 6.0357C5.87526 6.73065 4.68191 6.664 3.987 5.88683C3.29208 5.10966 3.35873 3.91628 4.13586 3.22133C9.12999 -1.24461 17.6643 -1.24472 21.7643 4.34028C22.3812 5.18069 22.2001 6.36212 21.3597 6.9791C20.6349 7.51121 19.6565 7.44967 19.0053 6.88352C18.8316 6.64113 18.6403 6.41543 18.4397 6.21973Z" fill="url(#paint10_linear_9_574)"/>
</g>
</g>
<rect x="109.266" y="5.40304" width="35.0639" height="14.0639" rx="7.03196" fill="white"/>
<rect x="109.266" y="5.40304" width="35.0639" height="14.0639" rx="7.03196" stroke="#BDC7FB" stroke-width="0.936073"/>
<path d="M118.711 14.935H116.753V9.84409H118.692C119.215 9.84409 119.668 9.94601 120.049 10.1498C120.432 10.352 120.727 10.6437 120.934 11.0248C121.143 11.4043 121.247 11.8592 121.247 12.3895C121.247 12.9198 121.143 13.3756 120.936 13.7567C120.729 14.1362 120.436 14.4279 120.056 14.6317C119.677 14.8339 119.229 14.935 118.711 14.935ZM118.135 13.7617H118.662C118.914 13.7617 119.128 13.7211 119.306 13.6399C119.485 13.5587 119.62 13.4187 119.713 13.2198C119.808 13.0209 119.855 12.7442 119.855 12.3895C119.855 12.0349 119.807 11.7582 119.711 11.5593C119.616 11.3604 119.477 11.2204 119.293 11.1392C119.111 11.058 118.887 11.0174 118.622 11.0174H118.135V13.7617ZM126.818 12.3895C126.818 12.9563 126.708 13.4344 126.488 13.8239C126.267 14.2116 125.97 14.5058 125.595 14.7063C125.221 14.9052 124.803 15.0046 124.342 15.0046C123.878 15.0046 123.459 14.9043 123.085 14.7038C122.712 14.5016 122.415 14.2067 122.195 13.8189C121.976 13.4294 121.867 12.953 121.867 12.3895C121.867 11.8228 121.976 11.3455 122.195 10.9577C122.415 10.5683 122.712 10.2741 123.085 10.0753C123.459 9.87475 123.878 9.77449 124.342 9.77449C124.803 9.77449 125.221 9.87475 125.595 10.0753C125.97 10.2741 126.267 10.5683 126.488 10.9577C126.708 11.3455 126.818 11.8228 126.818 12.3895ZM125.396 12.3895C125.396 12.0846 125.356 11.8278 125.275 11.619C125.195 11.4085 125.077 11.2494 124.919 11.1417C124.763 11.0323 124.571 10.9776 124.342 10.9776C124.114 10.9776 123.921 11.0323 123.763 11.1417C123.607 11.2494 123.489 11.4085 123.408 11.619C123.328 11.8278 123.288 12.0846 123.288 12.3895C123.288 12.6945 123.328 12.9522 123.408 13.1626C123.489 13.3714 123.607 13.5305 123.763 13.6399C123.921 13.7476 124.114 13.8015 124.342 13.8015C124.571 13.8015 124.763 13.7476 124.919 13.6399C125.077 13.5305 125.195 13.3714 125.275 13.1626C125.356 12.9522 125.396 12.6945 125.396 12.3895ZM132.211 11.7532H130.809C130.799 11.6372 130.772 11.5319 130.729 11.4375C130.688 11.343 130.63 11.2618 130.555 11.1939C130.482 11.1243 130.393 11.0712 130.289 11.0348C130.185 10.9967 130.066 10.9776 129.934 10.9776C129.702 10.9776 129.505 11.034 129.344 11.1466C129.185 11.2593 129.064 11.4209 128.982 11.6314C128.9 11.8418 128.86 12.0946 128.86 12.3895C128.86 12.7011 128.901 12.9621 128.984 13.1726C129.069 13.3814 129.19 13.5388 129.349 13.6449C129.509 13.7493 129.7 13.8015 129.924 13.8015C130.051 13.8015 130.166 13.7857 130.267 13.7542C130.368 13.7211 130.456 13.6739 130.53 13.6126C130.605 13.5512 130.665 13.4775 130.712 13.3913C130.76 13.3035 130.792 13.2049 130.809 13.0955L132.211 13.1055C132.194 13.3209 132.134 13.5405 132.029 13.7642C131.925 13.9863 131.776 14.1917 131.584 14.3807C131.394 14.5679 131.157 14.7187 130.876 14.8331C130.594 14.9474 130.267 15.0046 129.894 15.0046C129.427 15.0046 129.007 14.9043 128.636 14.7038C128.266 14.5033 127.974 14.2083 127.759 13.8189C127.545 13.4294 127.438 12.953 127.438 12.3895C127.438 11.8228 127.547 11.3455 127.766 10.9577C127.985 10.5683 128.28 10.2741 128.651 10.0753C129.022 9.87475 129.436 9.77449 129.894 9.77449C130.215 9.77449 130.511 9.81841 130.781 9.90624C131.051 9.99407 131.288 10.1225 131.492 10.2915C131.696 10.4589 131.86 10.6652 131.984 10.9105C132.109 11.1558 132.184 11.4367 132.211 11.7532ZM135.582 11.435C135.569 11.2693 135.507 11.14 135.396 11.0472C135.286 10.9544 135.12 10.908 134.896 10.908C134.753 10.908 134.637 10.9254 134.545 10.9602C134.456 10.9934 134.39 11.0389 134.347 11.0969C134.303 11.1549 134.281 11.2212 134.279 11.2958C134.276 11.3571 134.287 11.4126 134.312 11.4623C134.338 11.5104 134.38 11.5543 134.436 11.5941C134.492 11.6322 134.564 11.667 134.652 11.6985C134.74 11.73 134.845 11.7582 134.965 11.783L135.383 11.8725C135.665 11.9322 135.906 12.0109 136.106 12.1087C136.307 12.2064 136.471 12.3216 136.599 12.4542C136.726 12.5851 136.82 12.7326 136.88 12.8966C136.941 13.0607 136.972 13.2397 136.974 13.4336C136.972 13.7683 136.889 14.0517 136.723 14.2837C136.557 14.5157 136.32 14.6922 136.012 14.8132C135.705 14.9342 135.337 14.9947 134.906 14.9947C134.463 14.9947 134.077 14.9292 133.747 14.7983C133.419 14.6674 133.164 14.466 132.982 14.1942C132.801 13.9208 132.71 13.5711 132.708 13.1452H134.021C134.029 13.301 134.068 13.4319 134.138 13.538C134.207 13.644 134.305 13.7244 134.431 13.7791C134.559 13.8338 134.71 13.8611 134.886 13.8611C135.033 13.8611 135.157 13.8429 135.256 13.8065C135.356 13.77 135.431 13.7194 135.483 13.6548C135.534 13.5902 135.56 13.5164 135.562 13.4336C135.56 13.3557 135.535 13.2877 135.485 13.2297C135.437 13.1701 135.357 13.1171 135.246 13.0707C135.135 13.0226 134.985 12.9779 134.796 12.9364L134.289 12.827C133.839 12.7293 133.483 12.566 133.223 12.3373C132.964 12.107 132.836 11.793 132.838 11.3952C132.836 11.0721 132.922 10.7895 133.096 10.5476C133.272 10.304 133.515 10.1142 133.825 9.97833C134.136 9.84243 134.493 9.77449 134.896 9.77449C135.307 9.77449 135.662 9.84326 135.962 9.98081C136.262 10.1184 136.493 10.3123 136.656 10.5625C136.82 10.8111 136.903 11.1019 136.904 11.435H135.582Z" fill="#415AD6"/>
<defs>
<linearGradient id="paint0_linear_9_574" x1="10.2489" y1="12.4938" x2="11.5214" y2="4.31398" gradientUnits="userSpaceOnUse">
<stop stop-color="#F6D25B"/>
<stop offset="1" stop-color="#F8B580"/>
</linearGradient>
<linearGradient id="paint1_linear_9_574" x1="10.2489" y1="12.4938" x2="11.5214" y2="4.31396" gradientUnits="userSpaceOnUse">
<stop stop-color="#F6D25B"/>
<stop offset="1" stop-color="#F8B580"/>
</linearGradient>
<linearGradient id="paint2_linear_9_574" x1="15.9516" y1="0.457961" x2="8.62303" y2="8.91785" gradientUnits="userSpaceOnUse">
<stop stop-color="#895200"/>
<stop offset="0.833333" stop-color="#E28800" stop-opacity="0"/>
</linearGradient>
<linearGradient id="paint3_linear_9_574" x1="3.64085" y1="4.62665" x2="4.54803" y2="17.9021" gradientUnits="userSpaceOnUse">
<stop stop-color="#ED51F2"/>
<stop offset="1" stop-color="#B771F2"/>
</linearGradient>
<linearGradient id="paint4_linear_9_574" x1="3.61446" y1="18.6741" x2="17.6907" y2="19.5218" gradientUnits="userSpaceOnUse">
<stop stop-color="#B971F3"/>
<stop offset="1" stop-color="#8F6FDE"/>
</linearGradient>
<linearGradient id="paint5_linear_9_574" x1="21.1549" y1="8.11746" x2="18.9747" y2="21.0193" gradientUnits="userSpaceOnUse">
<stop stop-color="#6A4BB2"/>
<stop offset="1" stop-color="#9170E0"/>
</linearGradient>
<linearGradient id="paint6_linear_9_574" x1="21.1549" y1="6.94958" x2="18.61" y2="20.8552" gradientUnits="userSpaceOnUse">
<stop stop-color="#6A4BB2"/>
<stop offset="1" stop-color="#9170E0"/>
</linearGradient>
<linearGradient id="paint7_linear_9_574" x1="18.0363" y1="12.2851" x2="21.3171" y2="19.2051" gradientUnits="userSpaceOnUse">
<stop stop-color="#542DA7"/>
<stop offset="0.833333" stop-color="#5F2EAF" stop-opacity="0"/>
</linearGradient>
<linearGradient id="paint8_linear_9_574" x1="11.2487" y1="12.5846" x2="17.7014" y2="14.4022" gradientUnits="userSpaceOnUse">
<stop stop-color="#F6D25B"/>
<stop offset="1" stop-color="#F9A38F"/>
</linearGradient>
<linearGradient id="paint9_linear_9_574" x1="20.5294" y1="7.54504" x2="20.8007" y2="14.4168" gradientUnits="userSpaceOnUse">
<stop stop-color="#FA80B7"/>
<stop offset="1" stop-color="#F8A48D"/>
</linearGradient>
<linearGradient id="paint10_linear_9_574" x1="5.88654" y1="4.1322" x2="19.7917" y2="4.85924" gradientUnits="userSpaceOnUse">
<stop stop-color="#E755F3"/>
<stop offset="1" stop-color="#F97FB6"/>
</linearGradient>
<clipPath id="clip0_9_574">
<rect width="100.798" height="24.87" fill="white"/>
</clipPath>
<clipPath id="clip1_9_574">
<rect width="24.6701" height="24.87" fill="white"/>
</clipPath>
</defs>
</svg>
