<?xml version="1.0" encoding="utf-8"?>
<!-- Generator: Adobe Illustrator 27.3.1, SVG Export Plug-In . SVG Version: 6.00 Build 0)  -->
<svg version="1.1" id="Layer_1" xmlns="http://www.w3.org/2000/svg" xmlns:xlink="http://www.w3.org/1999/xlink" x="0px" y="0px"
	 viewBox="0 0 4207.11 1155.11" style="enable-background:new 0 0 4207.11 1155.11;" xml:space="preserve">
<style type="text/css">
	.st0{fill:#3A393D;}
	.st1{clip-path:url(#SVGID_00000121237917302734654570000007802433009826490514_);fill:#FB81B8;}
	
		.st2{clip-path:url(#SVGID_00000121237917302734654570000007802433009826490514_);fill-rule:evenodd;clip-rule:evenodd;fill:url(#SVGID_00000067951042823557912200000003375363423373398917_);}
	
		.st3{clip-path:url(#SVGID_00000121237917302734654570000007802433009826490514_);fill:url(#SVGID_00000173158817079393216730000015416942586975534773_);}
	
		.st4{clip-path:url(#SVGID_00000121237917302734654570000007802433009826490514_);fill-rule:evenodd;clip-rule:evenodd;fill:url(#SVGID_00000093858169607081702240000004176952752693074346_);}
	
		.st5{clip-path:url(#SVGID_00000121237917302734654570000007802433009826490514_);fill-rule:evenodd;clip-rule:evenodd;fill:url(#SVGID_00000070090918966372163940000003253904251979675325_);}
	
		.st6{clip-path:url(#SVGID_00000121237917302734654570000007802433009826490514_);fill-rule:evenodd;clip-rule:evenodd;fill:url(#SVGID_00000132776349315605697860000002688660824302203828_);}
	
		.st7{clip-path:url(#SVGID_00000121237917302734654570000007802433009826490514_);fill-rule:evenodd;clip-rule:evenodd;fill:#F97CBF;}
	
		.st8{clip-path:url(#SVGID_00000121237917302734654570000007802433009826490514_);fill-rule:evenodd;clip-rule:evenodd;fill:url(#SVGID_00000016755478859824984880000007136540152028842637_);}
	
		.st9{clip-path:url(#SVGID_00000121237917302734654570000007802433009826490514_);fill-rule:evenodd;clip-rule:evenodd;fill:url(#SVGID_00000016785315492321026870000005125100075421436076_);}
	
		.st10{clip-path:url(#SVGID_00000121237917302734654570000007802433009826490514_);fill-rule:evenodd;clip-rule:evenodd;fill:url(#SVGID_00000164475283253175513550000014604273281455785608_);}
</style>
<g>
	<path class="st0" d="M3857.75,798.3c73.6,0,142.18-30.11,153.05-76.94c3.35,30.11,20.07,52.69,44.33,64.39
		c21.74,10.88,48.51,12.55,74.43,2.51v-75.27c-10.87,2.51-22.58,3.35-31.78-4.18c-9.2-7.53-15.89-24.25-15.89-55.2V505.59
		c0-91.16-68.58-148.03-188.17-148.03c-103.71,0-182.33,42.65-192.36,107.05l80.29,23.42c6.69-32.62,45.99-55.2,107.05-55.2
		c58.54,0,104.54,19.24,104.54,51.02c0,30.11-41.82,44.33-145.52,51.85c-98.69,7.53-158.91,55.2-158.91,132.14
		C3688.81,743.94,3748.19,798.3,3857.75,798.3z M3857.75,723.87c-49.34,0-79.45-20.91-79.45-55.2c0-32.62,28.44-55.2,74.43-58.54
		c77.78-5.02,125.46-14.22,141.35-32.62C3994.08,666.16,3937.21,723.87,3857.75,723.87z"/>
	<path class="st0" d="M3435.68,360.34c-64.86,0-123.48,30.58-152.39,77.64c-22.67-49.41-74.25-76.85-129.73-77.64
		c-55.49,0-102.38,28.23-127.39,72.93v-61.17h-84.41v415.33h85.97V560.32c0-72.15,43.77-119.2,106.29-119.2
		c59.39,0,96.91,43.92,96.91,116.85v229.47h85.96V558.75c0-71.36,42.99-117.63,105.51-117.63c58.61,0,96.12,40.78,96.12,115.28
		v231.04h85.97V542.28c0-55.68-15.63-100.38-46.89-132.53C3527.12,376.81,3486.48,360.34,3435.68,360.34z"/>
	<path class="st0" d="M1498.51,798.3c133.82,0,224.14-90.32,224.14-223.3c0-132.14-88.65-216.61-224.14-216.61
		c-135.48,0-224.97,85.31-224.97,216.61C1273.54,707.98,1365.54,798.3,1498.51,798.3z M1498.51,718.01
		c-80.28,0-135.48-59.38-135.48-143.01c0-82.8,53.52-136.32,135.48-136.32c82.8,0,134.66,53.53,134.66,136.32
		C1633.17,659.47,1578.8,718.01,1498.51,718.01z"/>
	<path class="st0" d="M2118.08,357.55c-69.41,0-128.79,28.43-165.59,76.11v-70.25h-127.12v72.76h125.45
		c-25.09,33.45-39.31,76.11-39.31,125.45v153.05h-83.63v72.76h282.68v-72.76h-108.73V559.11c0-66.91,51.02-117.09,116.25-117.09
		c52.69,0,86.98,34.29,97.02,76.94l81.96-29.27C2279.5,410.24,2212.59,357.55,2118.08,357.55z"/>
	<path class="st0" d="M2562.4,798.3c73.6,0,142.18-30.11,153.05-76.94c3.34,30.11,20.07,52.69,44.32,64.39
		c21.75,10.88,48.51,12.55,74.44,2.51v-75.27c-10.87,2.51-22.58,3.35-31.78-4.18c-9.2-7.53-15.89-24.25-15.89-55.2V505.59
		c0-91.16-68.58-148.03-188.18-148.03c-103.7,0-182.32,42.65-192.36,107.05l80.29,23.42c6.69-32.62,46-55.2,107.05-55.2
		c58.55,0,104.55,19.24,104.55,51.02c0,30.11-41.82,44.33-145.53,51.85c-98.69,7.53-158.9,55.2-158.9,132.14
		C2393.45,743.94,2452.83,798.3,2562.4,798.3z M2562.4,723.87c-49.35,0-79.45-20.91-79.45-55.2c0-32.62,28.43-55.2,74.43-58.54
		c77.78-5.02,125.45-14.22,141.34-32.62C2698.71,666.16,2641.84,723.87,2562.4,723.87z"/>
	<g>
		<defs>
			<rect id="SVGID_1_" x="77.54" y="77.55" width="991.96" height="1000"/>
		</defs>
		<clipPath id="SVGID_00000038380815853527856460000014716498304102730413_">
			<use xlink:href="#SVGID_1_"  style="overflow:visible;"/>
		</clipPath>
		<path style="clip-path:url(#SVGID_00000038380815853527856460000014716498304102730413_);fill:#FB81B8;" d="M964.49,266.16
			c-7.5-10.1-15.38-19.9-23.62-29.38l0.45,12.06l8.31,17.88L964.49,266.16z"/>
		
			<linearGradient id="SVGID_00000106130761251848762430000015589503999752231061_" gradientUnits="userSpaceOnUse" x1="632.9487" y1="532.2463" x2="684.1137" y2="861.1483" gradientTransform="matrix(1 0 0 -1 0 1134.4569)">
			<stop  offset="0" style="stop-color:#F6D25B"/>
			<stop  offset="1" style="stop-color:#F8B580"/>
		</linearGradient>
		
			<path style="clip-path:url(#SVGID_00000038380815853527856460000014716498304102730413_);fill-rule:evenodd;clip-rule:evenodd;fill:url(#SVGID_00000106130761251848762430000015589503999752231061_);" d="
			M582.25,332.95c36.48-32.4,86.92-48.77,135.68-46.52c27.84,1.28,52.82,8.42,73.38,20.26c17.77,9.53,35.6,27.01,50.28,47.47
			c25.88,22.59,64.78,25.38,93.97,4.55c34.12-24.35,42.04-71.75,17.69-105.88c-55.18-77.34-142.8-114.1-228.32-118.05
			c-85.42-3.94-175.88,24.16-244.4,85.48c-0.23,0.21-0.46,0.41-0.69,0.62C344.2,342.8,332.65,551.74,454.43,687.83
			c27.95,31.23,75.94,33.9,107.17,5.94c31.24-27.96,33.9-75.94,5.94-107.18c-66-73.76-59.66-187.14,14.13-253.13
			C581.87,333.29,582.06,333.12,582.25,332.95z"/>
		
			<linearGradient id="SVGID_00000052088751104669478170000002194022524691803268_" gradientUnits="userSpaceOnUse" x1="743.3996" y1="189.0549" x2="515.282" y2="504.3607">
			<stop  offset="0" style="stop-color:#B87500"/>
			<stop  offset="0.8333" style="stop-color:#E28800;stop-opacity:0"/>
		</linearGradient>
		
			<path style="clip-path:url(#SVGID_00000038380815853527856460000014716498304102730413_);fill:url(#SVGID_00000052088751104669478170000002194022524691803268_);" d="
			M480.54,220.25c-0.23,0.21-0.46,0.41-0.69,0.62c-63.43,57.02-99.72,133.06-107.94,211.78l150.35,23.37
			c2.81-45.43,22.81-89.83,59.42-122.56c0.19-0.17,0.38-0.34,0.57-0.52c36.48-32.4,86.92-48.77,135.68-46.52
			c27.84,1.29,52.82,8.42,73.38,20.26c17.77,9.53,35.6,27.01,50.28,47.47c3.48,3.04,7.21,5.71,11.11,8.03l35.24-27.67v-99.87
			L553.34,171C527.38,183.95,502.79,200.34,480.54,220.25z"/>
		
			<linearGradient id="SVGID_00000165950880343848936580000010132344734743825585_" gradientUnits="userSpaceOnUse" x1="212.7228" y1="870.1025" x2="249.1998" y2="336.3056" gradientTransform="matrix(1 0 0 -1 0 1134.4569)">
			<stop  offset="0" style="stop-color:#ED51F2"/>
			<stop  offset="1" style="stop-color:#B771F2"/>
		</linearGradient>
		
			<path style="clip-path:url(#SVGID_00000038380815853527856460000014716498304102730413_);fill-rule:evenodd;clip-rule:evenodd;fill:url(#SVGID_00000165950880343848936580000010132344734743825585_);" d="
			M351.01,212.99c27.94,31.25,25.26,79.23-5.99,107.18c-142.84,127.73-155.08,347.04-27.34,489.9
			c27.94,31.25,25.26,79.23-5.99,107.17c-31.25,27.95-79.23,25.27-107.17-5.98C20.91,705.9,38.49,390.63,243.84,207.01
			C275.09,179.06,323.07,181.74,351.01,212.99z"/>
		
			<linearGradient id="SVGID_00000072243571785290033840000008441072575754176443_" gradientUnits="userSpaceOnUse" x1="217.4787" y1="216.3473" x2="783.4747" y2="182.2674" gradientTransform="matrix(1 0 0 -1 0 1134.4569)">
			<stop  offset="0" style="stop-color:#B971F3"/>
			<stop  offset="1" style="stop-color:#8F6FDE"/>
		</linearGradient>
		
			<path style="clip-path:url(#SVGID_00000038380815853527856460000014716498304102730413_);fill-rule:evenodd;clip-rule:evenodd;fill:url(#SVGID_00000072243571785290033840000008441072575754176443_);" d="
			M210.51,804.07c31.25-27.94,79.23-25.26,107.17,5.99C445.41,952.9,664.71,965.14,807.55,837.4
			c31.25-27.94,79.23-25.26,107.18,5.99c27.94,31.25,25.26,79.23-5.99,107.17c-205.34,183.62-520.6,166.04-704.22-39.31
			C176.58,880,179.26,832.01,210.51,804.07z"/>
		
			<linearGradient id="SVGID_00000021089502568202992190000003175242318437194668_" gradientUnits="userSpaceOnUse" x1="976.4927" y1="722.3389" x2="888.8231" y2="203.5648" gradientTransform="matrix(1 0 0 -1 0 1134.4569)">
			<stop  offset="0.0581" style="stop-color:#533894"/>
			<stop  offset="0.2242" style="stop-color:#6A4BB2"/>
			<stop  offset="1" style="stop-color:#9170E0"/>
		</linearGradient>
		
			<path style="clip-path:url(#SVGID_00000038380815853527856460000014716498304102730413_);fill-rule:evenodd;clip-rule:evenodd;fill:url(#SVGID_00000021089502568202992190000003175242318437194668_);" d="
			M894.92,293.86c36.22-21.11,82.69-8.86,103.8,27.36c115.12,197.54,92.22,466.42-89.9,629.33c-31.25,27.94-79.23,25.27-107.18-5.98
			c-27.94-31.24-25.27-79.23,5.97-107.17c122.51-109.58,142.9-297.42,59.95-439.74C846.46,361.44,858.71,314.97,894.92,293.86z"/>
		
			<path style="clip-path:url(#SVGID_00000038380815853527856460000014716498304102730413_);fill-rule:evenodd;clip-rule:evenodd;fill:#F97CBF;" d="
			M910.18,205.58l22.19,24.56l22.26,24.56c-0.55-0.82-1.14-1.68-1.76-2.55l2.05,2.2c-0.92-1.22-2.62-3.34-4.87-6.07
			C939.89,234.79,923.71,217.25,910.18,205.58z"/>
		
			<linearGradient id="SVGID_00000174571486520412396220000007529868002765047941_" gradientUnits="userSpaceOnUse" x1="519.6735" y1="514.7804" x2="779.1345" y2="441.6964" gradientTransform="matrix(1 0 0 -1 0 1134.4569)">
			<stop  offset="0" style="stop-color:#F6D25B"/>
			<stop  offset="1" style="stop-color:#F9A38F"/>
		</linearGradient>
		
			<path style="clip-path:url(#SVGID_00000038380815853527856460000014716498304102730413_);fill-rule:evenodd;clip-rule:evenodd;fill:url(#SVGID_00000174571486520412396220000007529868002765047941_);" d="
			M460.46,580.63c31.25-27.94,79.23-25.26,107.17,5.98c65.99,73.8,179.37,80.14,253.12,14.13c31.24-27.95,79.23-25.29,107.18,5.94
			c27.95,31.24,25.29,79.23-5.94,107.18c-136.3,121.98-345.67,110.2-467.52-26.06C426.54,656.56,429.22,608.58,460.46,580.63z"/>
		
			<linearGradient id="SVGID_00000181052908253088601360000000551759489889125783_" gradientUnits="userSpaceOnUse" x1="906.8618" y1="753.6749" x2="917.7718" y2="477.366" gradientTransform="matrix(1 0 0 -1 0 1134.4569)">
			<stop  offset="0" style="stop-color:#FA80B7"/>
			<stop  offset="1" style="stop-color:#F8A48D"/>
		</linearGradient>
		
			<path style="clip-path:url(#SVGID_00000038380815853527856460000014716498304102730413_);fill-rule:evenodd;clip-rule:evenodd;fill:url(#SVGID_00000181052908253088601360000000551759489889125783_);" d="
			M948.03,246.29c-27.95-31.24-75.93-33.9-107.17-5.94c-27.05,24.21-32.67,63.44-15.54,93.8c9.42,10.17,18.18,21.89,25.67,34.2
			c48.24,72.97,36.94,172.26-30.21,232.31c-31.25,27.94-33.93,75.93-5.98,107.18c27.94,31.24,75.92,33.92,107.17,5.98
			C1058.23,591.98,1070.01,382.6,948.03,246.29z"/>
		
			<linearGradient id="SVGID_00000126283432659389565040000010680965407702173317_" gradientUnits="userSpaceOnUse" x1="316.3795" y1="931.7114" x2="875.4966" y2="902.4774" gradientTransform="matrix(1 0 0 -1 0 1134.4569)">
			<stop  offset="0" style="stop-color:#E755F3"/>
			<stop  offset="1" style="stop-color:#F97FB6"/>
		</linearGradient>
		
			<path style="clip-path:url(#SVGID_00000038380815853527856460000014716498304102730413_);fill-rule:evenodd;clip-rule:evenodd;fill:url(#SVGID_00000126283432659389565040000010680965407702173317_);" d="
			M818.98,327.64c-107.07-125.22-331.8-134.52-473.95-7.4c-31.25,27.94-79.23,25.26-107.17-5.99
			c-27.94-31.25-25.26-79.23,5.99-107.18C444.65,27.51,787.81,27.51,952.66,252.07c24.81,33.79,17.53,81.3-16.26,106.1
			c-29.15,21.4-68.49,18.92-94.67-3.84C834.74,344.59,827.05,335.51,818.98,327.64z"/>
	</g>
</g>
</svg>
