<?xml version="1.0" encoding="utf-8"?>
<!-- Generator: Adobe Illustrator 27.3.1, SVG Export Plug-In . SVG Version: 6.00 Build 0)  -->
<svg version="1.1" id="Layer_1" xmlns="http://www.w3.org/2000/svg" xmlns:xlink="http://www.w3.org/1999/xlink" x="0px" y="0px"
	 viewBox="0 0 4207.11 1155.11" style="enable-background:new 0 0 4207.11 1155.11;" xml:space="preserve">
<style type="text/css">
	.st0{fill:#F1F1F1;}
	.st1{clip-path:url(#SVGID_00000173879314932002601690000004467558796121400750_);fill:#FB81B8;}
	
		.st2{clip-path:url(#SVGID_00000110465739266569342360000009994806409646629266_);fill-rule:evenodd;clip-rule:evenodd;fill:url(#SVGID_00000109749856959687867430000005922655113651493051_);}
	
		.st3{clip-path:url(#SVGID_00000083772220377844668640000014270627887136862871_);fill:url(#SVGID_00000023970480408666843750000009139365288006549676_);}
	
		.st4{clip-path:url(#SVGID_00000007387021808622077600000008231332769069855412_);fill-rule:evenodd;clip-rule:evenodd;fill:url(#SVGID_00000096037922040833498710000000345973257815506326_);}
	
		.st5{clip-path:url(#SVGID_00000155131937825044918480000012477285865566750606_);fill-rule:evenodd;clip-rule:evenodd;fill:url(#SVGID_00000085956322674693249330000002897762106153069457_);}
	
		.st6{clip-path:url(#SVGID_00000007427917354384892590000008323849365716177816_);fill-rule:evenodd;clip-rule:evenodd;fill:url(#SVGID_00000100354159152759772890000018306988680613241258_);}
	
		.st7{clip-path:url(#SVGID_00000117676152446614577000000003290884631243360662_);fill-rule:evenodd;clip-rule:evenodd;fill:#F97CBF;}
	
		.st8{clip-path:url(#SVGID_00000045603176312755833640000016830543301894725252_);fill-rule:evenodd;clip-rule:evenodd;fill:url(#SVGID_00000055669823316971348430000007456605679816995478_);}
	
		.st9{clip-path:url(#SVGID_00000050637087109987908300000001655297821271179658_);fill-rule:evenodd;clip-rule:evenodd;fill:url(#SVGID_00000121276425135176461840000001411911869491139213_);}
	
		.st10{clip-path:url(#SVGID_00000155862216285633165090000011392877503296698766_);fill-rule:evenodd;clip-rule:evenodd;fill:url(#SVGID_00000028307555131462038650000001206007083441086101_);}
</style>
<g>
	<path class="st0" d="M3857.75,798.3c73.6,0,142.18-30.11,153.05-76.94c3.35,30.11,20.07,52.69,44.33,64.39
		c21.74,10.88,48.51,12.55,74.43,2.51v-75.27c-10.87,2.51-22.58,3.35-31.78-4.18c-9.2-7.53-15.89-24.25-15.89-55.2V505.59
		c0-91.16-68.58-148.03-188.17-148.03c-103.71,0-182.33,42.65-192.36,107.05l80.29,23.42c6.69-32.62,45.99-55.2,107.05-55.2
		c58.54,0,104.54,19.24,104.54,51.02c0,30.11-41.82,44.33-145.52,51.85c-98.69,7.53-158.91,55.2-158.91,132.14
		C3688.81,743.94,3748.19,798.3,3857.75,798.3z M3857.75,723.87c-49.34,0-79.45-20.91-79.45-55.2c0-32.62,28.44-55.2,74.43-58.54
		c77.78-5.02,125.46-14.22,141.35-32.62C3994.08,666.16,3937.21,723.87,3857.75,723.87z"/>
	<path class="st0" d="M3435.68,360.34c-64.86,0-123.48,30.58-152.39,77.64c-22.67-49.41-74.25-76.85-129.73-77.64
		c-55.49,0-102.38,28.23-127.39,72.93V372.1h-84.41v415.33h85.97V560.32c0-72.15,43.77-119.2,106.29-119.2
		c59.39,0,96.91,43.92,96.91,116.85v229.47h85.96V558.75c0-71.36,42.99-117.63,105.51-117.63c58.61,0,96.12,40.78,96.12,115.28
		v231.04h85.97V542.28c0-55.68-15.63-100.38-46.89-132.53C3527.12,376.81,3486.48,360.34,3435.68,360.34z"/>
	<path class="st0" d="M1498.51,798.3c133.82,0,224.14-90.32,224.14-223.3c0-132.14-88.65-216.61-224.14-216.61
		c-135.48,0-224.97,85.31-224.97,216.61C1273.54,707.98,1365.54,798.3,1498.51,798.3z M1498.51,718.01
		c-80.28,0-135.48-59.38-135.48-143.01c0-82.8,53.52-136.32,135.48-136.32c82.8,0,134.66,53.53,134.66,136.32
		C1633.17,659.47,1578.8,718.01,1498.51,718.01z"/>
	<path class="st0" d="M2118.08,357.55c-69.41,0-128.79,28.43-165.59,76.11v-70.25h-127.12v72.76h125.45
		c-25.09,33.45-39.31,76.11-39.31,125.45v153.05h-83.63v72.76h282.68v-72.76h-108.73V559.11c0-66.91,51.02-117.09,116.25-117.09
		c52.69,0,86.98,34.29,97.02,76.94l81.96-29.27C2279.5,410.24,2212.59,357.55,2118.08,357.55z"/>
	<path class="st0" d="M2562.4,798.3c73.6,0,142.18-30.11,153.05-76.94c3.34,30.11,20.07,52.69,44.32,64.39
		c21.75,10.88,48.51,12.55,74.44,2.51v-75.27c-10.87,2.51-22.58,3.35-31.78-4.18c-9.2-7.53-15.89-24.25-15.89-55.2V505.59
		c0-91.16-68.58-148.03-188.18-148.03c-103.7,0-182.32,42.65-192.36,107.05l80.29,23.42c6.69-32.62,46-55.2,107.05-55.2
		c58.55,0,104.55,19.24,104.55,51.02c0,30.11-41.82,44.33-145.53,51.85c-98.69,7.53-158.9,55.2-158.9,132.14
		C2393.45,743.94,2452.83,798.3,2562.4,798.3z M2562.4,723.87c-49.35,0-79.45-20.91-79.45-55.2c0-32.62,28.43-55.2,74.43-58.54
		c77.78-5.02,125.45-14.22,141.34-32.62C2698.71,666.16,2641.84,723.87,2562.4,723.87z"/>
	<g>
		<g>
			<defs>
				<rect id="SVGID_1_" x="77.54" y="77.55" width="991.96" height="1000"/>
			</defs>
			<clipPath id="SVGID_00000121268798702998510230000005643258932180310456_">
				<use xlink:href="#SVGID_1_"  style="overflow:visible;"/>
			</clipPath>
			<path style="clip-path:url(#SVGID_00000121268798702998510230000005643258932180310456_);fill:#FB81B8;" d="M964.49,266.16
				c-7.5-10.1-15.38-19.9-23.62-29.38l0.45,12.06l8.31,17.88L964.49,266.16z"/>
		</g>
		<g>
			<defs>
				<rect id="SVGID_00000132801207844521883380000001144961587917490308_" x="77.54" y="77.55" width="991.96" height="1000"/>
			</defs>
			<clipPath id="SVGID_00000059999105356714831490000015936170148687480509_">
				<use xlink:href="#SVGID_00000132801207844521883380000001144961587917490308_"  style="overflow:visible;"/>
			</clipPath>
			
				<linearGradient id="SVGID_00000093176865209722477000000011715820931976827578_" gradientUnits="userSpaceOnUse" x1="632.9461" y1="667.7533" x2="684.1111" y2="338.8513" gradientTransform="matrix(1 0 0 1 0 -65.5431)">
				<stop  offset="0" style="stop-color:#F6D25B"/>
				<stop  offset="1" style="stop-color:#F8B580"/>
			</linearGradient>
			
				<path style="clip-path:url(#SVGID_00000059999105356714831490000015936170148687480509_);fill-rule:evenodd;clip-rule:evenodd;fill:url(#SVGID_00000093176865209722477000000011715820931976827578_);" d="
				M582.25,332.95c36.48-32.4,86.92-48.77,135.68-46.52c27.84,1.28,52.82,8.42,73.38,20.26c17.77,9.53,35.6,27.01,50.28,47.47
				c25.88,22.59,64.78,25.38,93.97,4.55c34.12-24.35,42.04-71.75,17.69-105.88c-55.18-77.34-142.8-114.1-228.32-118.05
				c-85.42-3.94-175.88,24.16-244.4,85.48c-0.23,0.21-0.46,0.41-0.69,0.62C344.2,342.8,332.65,551.74,454.43,687.83
				c27.95,31.23,75.94,33.9,107.17,5.94c31.24-27.96,33.9-75.94,5.94-107.18c-66-73.76-59.66-187.14,14.13-253.13
				C581.87,333.29,582.06,333.12,582.25,332.95z"/>
		</g>
		<g>
			<defs>
				<rect id="SVGID_00000013907128510026533650000010036115935727582602_" x="77.54" y="77.55" width="991.96" height="1000"/>
			</defs>
			<clipPath id="SVGID_00000135674015354062069270000006833664330394771631_">
				<use xlink:href="#SVGID_00000013907128510026533650000010036115935727582602_"  style="overflow:visible;"/>
			</clipPath>
			
				<linearGradient id="SVGID_00000036235129082870245900000017103119738676703396_" gradientUnits="userSpaceOnUse" x1="743.3976" y1="968.9465" x2="515.28" y2="653.6407" gradientTransform="matrix(1 0 0 -1 0 1158)">
				<stop  offset="0" style="stop-color:#B87500"/>
				<stop  offset="0.8333" style="stop-color:#E28800;stop-opacity:0"/>
			</linearGradient>
			
				<path style="clip-path:url(#SVGID_00000135674015354062069270000006833664330394771631_);fill:url(#SVGID_00000036235129082870245900000017103119738676703396_);" d="
				M480.54,220.25c-0.23,0.21-0.46,0.41-0.69,0.62c-63.43,57.02-99.72,133.06-107.94,211.78l150.35,23.37
				c2.81-45.43,22.81-89.83,59.42-122.56c0.19-0.17,0.38-0.34,0.57-0.52c36.48-32.4,86.92-48.77,135.68-46.52
				c27.84,1.29,52.82,8.42,73.38,20.26c17.77,9.53,35.6,27.01,50.28,47.47c3.48,3.04,7.21,5.71,11.11,8.03l35.24-27.67v-99.87
				L553.34,171C527.38,183.95,502.79,200.34,480.54,220.25z"/>
		</g>
		<g>
			<defs>
				<rect id="SVGID_00000074443572212008522240000014548985283449141922_" x="77.54" y="77.55" width="991.96" height="1000"/>
			</defs>
			<clipPath id="SVGID_00000060006629115063922150000001029127594669122954_">
				<use xlink:href="#SVGID_00000074443572212008522240000014548985283449141922_"  style="overflow:visible;"/>
			</clipPath>
			
				<linearGradient id="SVGID_00000183967097004921034050000018275946927356596122_" gradientUnits="userSpaceOnUse" x1="212.7181" y1="329.8978" x2="249.1951" y2="863.6947" gradientTransform="matrix(1 0 0 1 0 -65.5431)">
				<stop  offset="0" style="stop-color:#ED51F2"/>
				<stop  offset="1" style="stop-color:#B771F2"/>
			</linearGradient>
			
				<path style="clip-path:url(#SVGID_00000060006629115063922150000001029127594669122954_);fill-rule:evenodd;clip-rule:evenodd;fill:url(#SVGID_00000183967097004921034050000018275946927356596122_);" d="
				M351.01,212.99c27.94,31.25,25.26,79.23-5.99,107.18c-142.84,127.73-155.08,347.04-27.34,489.9
				c27.94,31.25,25.26,79.23-5.99,107.17c-31.25,27.95-79.23,25.27-107.17-5.98C20.91,705.9,38.49,390.63,243.84,207.01
				C275.09,179.06,323.07,181.74,351.01,212.99z"/>
		</g>
		<g>
			<defs>
				<rect id="SVGID_00000081610168116315473210000001666380160922619536_" x="77.54" y="77.55" width="991.96" height="1000"/>
			</defs>
			<clipPath id="SVGID_00000060015650298598779840000013421877802383444115_">
				<use xlink:href="#SVGID_00000081610168116315473210000001666380160922619536_"  style="overflow:visible;"/>
			</clipPath>
			
				<linearGradient id="SVGID_00000124155536186383673170000012910981959602976948_" gradientUnits="userSpaceOnUse" x1="217.479" y1="983.6482" x2="783.4749" y2="1017.7281" gradientTransform="matrix(1 0 0 1 0 -65.5431)">
				<stop  offset="0" style="stop-color:#B971F3"/>
				<stop  offset="1" style="stop-color:#8F6FDE"/>
			</linearGradient>
			
				<path style="clip-path:url(#SVGID_00000060015650298598779840000013421877802383444115_);fill-rule:evenodd;clip-rule:evenodd;fill:url(#SVGID_00000124155536186383673170000012910981959602976948_);" d="
				M210.51,804.07c31.25-27.94,79.23-25.26,107.17,5.99C445.41,952.9,664.71,965.14,807.55,837.4
				c31.25-27.94,79.23-25.26,107.18,5.99c27.94,31.25,25.26,79.23-5.99,107.17c-205.34,183.62-520.6,166.04-704.22-39.31
				C176.58,880,179.26,832.01,210.51,804.07z"/>
		</g>
		<g>
			<defs>
				<rect id="SVGID_00000072982422034268940340000003236561870911449505_" x="77.54" y="77.55" width="991.96" height="1000"/>
			</defs>
			<clipPath id="SVGID_00000065792990152183571900000017052089329406130570_">
				<use xlink:href="#SVGID_00000072982422034268940340000003236561870911449505_"  style="overflow:visible;"/>
			</clipPath>
			
				<linearGradient id="SVGID_00000017491665141959825730000001241283493900206001_" gradientUnits="userSpaceOnUse" x1="976.4875" y1="477.6602" x2="888.818" y2="996.4343" gradientTransform="matrix(1 0 0 1 0 -65.5431)">
				<stop  offset="0.0581" style="stop-color:#533894"/>
				<stop  offset="0.2242" style="stop-color:#6A4BB2"/>
				<stop  offset="1" style="stop-color:#9170E0"/>
			</linearGradient>
			
				<path style="clip-path:url(#SVGID_00000065792990152183571900000017052089329406130570_);fill-rule:evenodd;clip-rule:evenodd;fill:url(#SVGID_00000017491665141959825730000001241283493900206001_);" d="
				M894.92,293.86c36.22-21.11,82.69-8.86,103.8,27.36c115.12,197.54,92.22,466.42-89.9,629.33
				c-31.25,27.94-79.23,25.27-107.18-5.98c-27.94-31.24-25.27-79.23,5.97-107.17c122.51-109.58,142.9-297.42,59.95-439.74
				C846.46,361.44,858.71,314.97,894.92,293.86z"/>
		</g>
		<g>
			<defs>
				<rect id="SVGID_00000178912950213651072040000015332377829268366241_" x="77.54" y="77.55" width="991.96" height="1000"/>
			</defs>
			<clipPath id="SVGID_00000003104009647018847560000003167058506363199677_">
				<use xlink:href="#SVGID_00000178912950213651072040000015332377829268366241_"  style="overflow:visible;"/>
			</clipPath>
			
				<path style="clip-path:url(#SVGID_00000003104009647018847560000003167058506363199677_);fill-rule:evenodd;clip-rule:evenodd;fill:#F97CBF;" d="
				M910.18,205.58l22.19,24.56l22.26,24.56c-0.55-0.82-1.14-1.68-1.76-2.55l2.05,2.2c-0.92-1.22-2.62-3.34-4.87-6.07
				C939.89,234.79,923.71,217.25,910.18,205.58z"/>
		</g>
		<g>
			<defs>
				<rect id="SVGID_00000084490299192430357380000011213689421424324506_" x="77.54" y="77.55" width="991.96" height="1000"/>
			</defs>
			<clipPath id="SVGID_00000164508459323688205210000008640420600822705553_">
				<use xlink:href="#SVGID_00000084490299192430357380000011213689421424324506_"  style="overflow:visible;"/>
			</clipPath>
			
				<linearGradient id="SVGID_00000170267259527780176860000006073806367091791030_" gradientUnits="userSpaceOnUse" x1="519.6767" y1="685.2084" x2="779.1377" y2="758.2924" gradientTransform="matrix(1 0 0 1 0 -65.5431)">
				<stop  offset="0" style="stop-color:#F6D25B"/>
				<stop  offset="1" style="stop-color:#F9A38F"/>
			</linearGradient>
			
				<path style="clip-path:url(#SVGID_00000164508459323688205210000008640420600822705553_);fill-rule:evenodd;clip-rule:evenodd;fill:url(#SVGID_00000170267259527780176860000006073806367091791030_);" d="
				M460.46,580.63c31.25-27.94,79.23-25.26,107.17,5.98c65.99,73.8,179.37,80.14,253.12,14.13c31.24-27.95,79.23-25.29,107.18,5.94
				c27.95,31.24,25.29,79.23-5.94,107.18c-136.3,121.98-345.67,110.2-467.52-26.06C426.54,656.56,429.22,608.58,460.46,580.63z"/>
		</g>
		<g>
			<defs>
				<rect id="SVGID_00000127017323737487392550000008473053559487997842_" x="77.54" y="77.55" width="991.96" height="1000"/>
			</defs>
			<clipPath id="SVGID_00000160183571604989289640000015263043463508147077_">
				<use xlink:href="#SVGID_00000127017323737487392550000008473053559487997842_"  style="overflow:visible;"/>
			</clipPath>
			
				<linearGradient id="SVGID_00000116946883690738538160000013612399194111919232_" gradientUnits="userSpaceOnUse" x1="906.8571" y1="446.3253" x2="917.767" y2="722.6342" gradientTransform="matrix(1 0 0 1 0 -65.5431)">
				<stop  offset="0" style="stop-color:#FA80B7"/>
				<stop  offset="1" style="stop-color:#F8A48D"/>
			</linearGradient>
			
				<path style="clip-path:url(#SVGID_00000160183571604989289640000015263043463508147077_);fill-rule:evenodd;clip-rule:evenodd;fill:url(#SVGID_00000116946883690738538160000013612399194111919232_);" d="
				M948.03,246.29c-27.95-31.24-75.93-33.9-107.17-5.94c-27.05,24.21-32.67,63.44-15.54,93.8c9.42,10.17,18.18,21.89,25.67,34.2
				c48.24,72.97,36.94,172.26-30.21,232.31c-31.25,27.94-33.93,75.93-5.98,107.18c27.94,31.24,75.92,33.92,107.17,5.98
				C1058.23,591.98,1070.01,382.6,948.03,246.29z"/>
		</g>
		<g>
			<defs>
				<rect id="SVGID_00000034047628357022744370000005708389746205183905_" x="77.54" y="77.55" width="991.96" height="1000"/>
			</defs>
			<clipPath id="SVGID_00000021110742940678685690000007082978876593895809_">
				<use xlink:href="#SVGID_00000034047628357022744370000005708389746205183905_"  style="overflow:visible;"/>
			</clipPath>
			
				<linearGradient id="SVGID_00000127754531223994608130000011997726087784061358_" gradientUnits="userSpaceOnUse" x1="316.3796" y1="268.2854" x2="875.4967" y2="297.5194" gradientTransform="matrix(1 0 0 1 0 -65.5431)">
				<stop  offset="0" style="stop-color:#E755F3"/>
				<stop  offset="1" style="stop-color:#F97FB6"/>
			</linearGradient>
			
				<path style="clip-path:url(#SVGID_00000021110742940678685690000007082978876593895809_);fill-rule:evenodd;clip-rule:evenodd;fill:url(#SVGID_00000127754531223994608130000011997726087784061358_);" d="
				M818.98,327.64c-107.07-125.22-331.8-134.52-473.95-7.4c-31.25,27.94-79.23,25.26-107.17-5.99s-25.26-79.23,5.99-107.18
				c200.8-179.56,543.96-179.56,708.81,45c24.81,33.79,17.53,81.3-16.26,106.1c-29.15,21.4-68.49,18.92-94.67-3.84
				C834.74,344.59,827.05,335.51,818.98,327.64z"/>
		</g>
	</g>
</g>
</svg>
