<?xml version="1.0" standalone="no"?>
<!DOCTYPE svg PUBLIC "-//W3C//DTD SVG 20010904//EN"
 "http://www.w3.org/TR/2001/REC-SVG-20010904/DTD/svg10.dtd">
<svg version="1.0" xmlns="http://www.w3.org/2000/svg"
 width="1000.000000pt" height="1000.000000pt" viewBox="0 0 1000.000000 1000.000000"
 preserveAspectRatio="xMidYMid meet">
<metadata>
Created by potrace 1.14, written by Peter Selinger 2001-2017
</metadata>
<g transform="translate(0.000000,1000.000000) scale(0.100000,-0.100000)"
fill="#000000" stroke="none">
<path d="M4898 9995 c-1 -2 -50 -6 -108 -9 -58 -4 -116 -8 -130 -10 -14 -2
-56 -7 -95 -11 -70 -7 -118 -13 -165 -21 -14 -2 -45 -7 -70 -10 -50 -7 -57 -8
-117 -22 -23 -5 -44 -8 -47 -5 -2 3 -13 0 -23 -5 -10 -5 -38 -13 -63 -16 -50
-7 -85 -14 -85 -16 0 -2 -17 -6 -60 -15 -16 -4 -34 -8 -40 -9 -49 -13 -80 -21
-139 -38 -38 -11 -76 -21 -85 -23 -65 -15 -399 -128 -456 -155 -11 -5 -49 -21
-85 -36 -36 -15 -81 -34 -100 -42 -19 -9 -38 -15 -42 -14 -5 1 -8 -2 -8 -8 0
-6 -3 -9 -7 -8 -5 1 -44 -15 -88 -36 -44 -21 -93 -45 -110 -52 -16 -8 -70 -37
-120 -64 -49 -28 -101 -56 -115 -62 -14 -7 -27 -15 -30 -19 -3 -3 -21 -14 -40
-24 -19 -10 -37 -21 -40 -24 -3 -3 -22 -15 -43 -26 -20 -11 -37 -23 -37 -27 0
-5 -3 -7 -7 -6 -8 3 -202 -124 -233 -152 -9 -8 -23 -19 -32 -25 -8 -5 -35 -24
-61 -41 -26 -17 -44 -34 -40 -38 3 -3 1 -6 -6 -6 -7 0 -18 -6 -25 -12 -7 -7
-28 -24 -46 -38 -31 -23 -97 -77 -110 -90 -3 -3 -34 -30 -70 -60 -98 -83 -471
-460 -456 -460 3 0 -9 -15 -27 -32 -41 -42 -195 -238 -269 -342 -31 -45 -65
-92 -75 -106 -10 -14 -17 -28 -15 -32 1 -5 -3 -8 -8 -8 -6 0 -15 -10 -20 -22
-6 -13 -35 -61 -65 -108 -31 -47 -62 -98 -70 -115 -8 -16 -25 -46 -36 -65 -38
-62 -171 -322 -175 -343 -2 -11 -7 -23 -12 -26 -4 -3 -15 -24 -24 -46 -9 -22
-36 -89 -61 -150 -59 -147 -60 -149 -63 -160 -2 -5 -23 -68 -47 -140 -40 -119
-54 -162 -58 -190 0 -5 -5 -17 -10 -26 -4 -9 -10 -27 -13 -40 -5 -23 -11 -49
-20 -86 -3 -10 -9 -33 -15 -51 -5 -18 -10 -35 -10 -37 -1 -3 -1 -6 -2 -7 -1
-2 -2 -14 -4 -28 -2 -14 -6 -36 -10 -50 -3 -14 -10 -45 -15 -70 -5 -25 -12
-56 -15 -70 -3 -14 -8 -45 -11 -70 -3 -25 -8 -54 -10 -65 -2 -11 -6 -40 -9
-65 -3 -25 -8 -56 -10 -70 -3 -14 -7 -45 -10 -70 -3 -25 -7 -63 -10 -85 -20
-171 -27 -641 -13 -835 12 -156 22 -254 32 -325 4 -22 11 -71 17 -110 6 -38
12 -81 15 -95 2 -14 12 -68 23 -120 11 -52 17 -98 15 -102 -3 -5 -1 -8 4 -8 5
0 9 -6 9 -12 0 -16 22 -117 30 -138 3 -8 8 -24 10 -35 9 -49 132 -435 153
-480 5 -11 23 -55 40 -99 45 -114 140 -325 167 -368 13 -21 23 -43 23 -50 0
-7 9 -24 20 -38 11 -14 20 -29 20 -33 0 -10 119 -217 136 -237 7 -8 13 -18 13
-23 1 -7 51 -87 61 -97 3 -3 11 -17 19 -32 8 -15 22 -37 33 -47 10 -11 18 -24
18 -28 0 -4 14 -24 30 -43 16 -19 30 -38 30 -41 0 -12 179 -240 293 -373 129
-149 345 -366 504 -503 82 -71 193 -159 283 -226 36 -26 72 -53 80 -60 9 -7
43 -30 75 -52 33 -22 62 -42 65 -45 8 -8 42 -28 78 -47 17 -9 32 -20 32 -25 0
-4 7 -8 15 -8 8 0 15 -4 15 -10 0 -5 4 -10 9 -10 7 0 40 -18 129 -71 15 -8 63
-35 107 -58 44 -24 85 -47 91 -52 6 -5 14 -6 17 -2 4 3 7 1 7 -5 0 -7 4 -12 9
-12 5 0 56 -22 113 -49 143 -67 160 -75 305 -132 168 -67 354 -129 365 -123 4
3 8 0 8 -5 0 -6 10 -11 23 -11 13 0 27 -3 31 -7 3 -4 17 -8 29 -10 12 -2 33
-7 47 -12 14 -5 39 -13 55 -17 17 -4 32 -8 35 -9 21 -7 86 -19 93 -17 4 1 7
-2 7 -8 0 -5 7 -7 15 -4 8 4 21 1 29 -5 7 -6 15 -9 18 -6 2 3 20 0 39 -5 19
-6 50 -13 69 -15 19 -3 45 -7 58 -10 45 -10 58 -13 103 -19 25 -4 57 -9 70
-11 33 -6 92 -13 164 -21 33 -3 71 -7 84 -9 121 -19 663 -27 851 -12 128 10
243 23 304 32 11 2 41 6 66 9 43 6 65 9 128 21 15 3 43 8 62 11 19 3 42 7 50
9 8 2 29 7 45 10 17 2 41 7 55 11 14 3 34 7 45 9 11 2 20 4 20 5 0 2 9 4 20 6
26 4 60 12 60 14 0 2 20 7 59 15 16 3 33 8 38 11 4 3 16 7 27 9 109 21 498
159 676 240 161 73 453 221 465 236 3 3 28 18 55 34 28 15 81 47 118 71 37 24
72 44 77 44 6 0 10 4 10 9 0 5 8 12 18 15 10 4 27 14 38 24 10 10 37 29 59 42
22 13 45 31 52 40 7 8 13 11 13 7 0 -4 11 4 25 18 14 14 29 25 33 25 4 0 19
10 34 23 42 35 61 50 103 81 22 17 42 33 45 36 3 3 48 41 100 85 137 114 414
394 520 525 19 24 43 51 52 61 32 34 228 298 228 307 0 6 4 12 9 14 5 1 30 37
57 78 26 41 52 78 58 82 6 4 7 8 3 8 -4 0 5 19 21 43 32 47 100 168 152 267
18 36 38 68 44 72 6 4 8 8 4 8 -4 0 8 31 27 69 19 38 35 74 35 80 0 6 5 11 10
11 6 0 9 3 8 8 -1 8 5 24 33 87 32 73 80 198 126 325 40 111 48 138 56 175 2
6 5 15 9 20 3 6 9 26 14 45 11 50 11 50 14 53 1 1 3 9 5 17 2 8 6 25 9 38 3
12 8 31 11 43 2 11 7 29 10 39 3 10 8 29 11 42 3 13 7 32 9 43 3 11 7 29 9 40
2 11 9 40 15 65 5 25 12 59 15 75 3 17 8 40 10 51 5 23 11 61 26 159 5 33 12
78 15 100 3 22 8 63 11 90 2 28 6 68 9 90 25 231 25 803 0 978 -2 18 -7 55 -9
82 -5 51 -13 112 -22 175 -3 19 -7 48 -9 63 -12 81 -17 112 -22 120 -2 4 -6
26 -8 50 -2 23 -8 59 -13 80 -6 20 -8 37 -5 37 3 0 0 7 -7 15 -7 9 -10 18 -7
21 3 3 1 18 -4 33 -6 14 -14 44 -19 66 -12 58 -24 104 -54 210 -1 6 -8 30 -15
55 -7 25 -22 74 -34 110 -12 36 -22 67 -22 70 -1 3 -5 14 -9 25 -4 11 -12 34
-18 50 -5 17 -14 39 -18 50 -4 11 -22 58 -40 105 -18 47 -38 99 -45 115 -8 17
-22 50 -33 75 -11 25 -27 63 -37 85 -10 22 -17 42 -16 44 2 2 -1 7 -6 10 -7 5
-34 55 -38 71 -2 8 -81 161 -115 220 -17 30 -38 71 -48 90 -9 19 -19 37 -22
40 -3 3 -20 34 -39 70 -72 138 -162 280 -253 400 -21 27 -38 54 -38 59 0 5 -3
11 -7 13 -5 2 -28 28 -53 58 -25 30 -48 57 -52 58 -5 2 -8 8 -8 13 0 5 -9 20
-20 32 -11 12 -37 42 -56 67 -61 76 -107 130 -159 189 -74 83 -301 308 -375
371 -35 30 -72 63 -82 73 -10 9 -18 15 -18 12 0 -3 -9 4 -21 16 -11 11 -75 61
-142 110 -67 49 -128 93 -134 99 -7 6 -13 8 -13 5 0 -4 -7 0 -15 9 -8 8 -43
31 -77 52 -35 21 -65 40 -68 43 -4 5 -27 18 -115 65 -11 6 -22 14 -25 17 -3 3
-66 36 -140 74 -74 37 -141 72 -147 77 -7 6 -13 8 -13 5 0 -5 -55 17 -155 63
-82 37 -435 162 -435 154 0 -2 -10 1 -22 7 -13 7 -32 14 -43 15 -25 4 -59 12
-62 14 -2 2 -6 3 -10 4 -5 1 -17 5 -28 9 -11 3 -31 8 -45 11 -14 3 -43 10 -65
15 -22 6 -41 10 -42 11 -2 0 -5 1 -8 1 -3 1 -8 2 -12 3 -5 1 -28 6 -53 10 -25
5 -54 10 -65 13 -11 2 -29 6 -40 8 -11 2 -31 6 -45 8 -24 5 -120 20 -210 33
-25 4 -58 8 -75 9 -16 1 -57 6 -90 9 -33 4 -82 9 -110 12 -59 6 -652 14 -657
9z m-1198 -1811 c0 -3 -6 -11 -12 -18 -28 -29 -56 -64 -98 -126 -25 -36 -48
-69 -53 -75 -72 -97 -241 -397 -230 -409 4 -3 1 -6 -5 -6 -6 0 -14 -10 -18
-22 -4 -13 -19 -50 -34 -83 -15 -33 -33 -73 -40 -90 -16 -38 -90 -245 -95
-265 -2 -8 -11 -40 -20 -70 -30 -104 -53 -205 -49 -212 3 -5 1 -8 -3 -8 -5 0
-10 -12 -11 -27 -1 -16 -5 -39 -8 -53 -8 -36 -13 -61 -17 -91 -2 -14 -7 -31
-11 -37 -3 -6 -2 -13 4 -17 6 -4 7 -12 1 -24 -17 -31 -32 -233 -33 -436 -1
-174 12 -379 28 -459 5 -24 16 -115 17 -133 0 -7 3 -13 6 -13 3 0 7 -12 8 -28
1 -27 21 -125 30 -152 3 -8 7 -22 8 -30 14 -98 127 -418 206 -585 18 -38 33
-74 34 -78 0 -4 7 -12 15 -17 8 -5 12 -10 8 -10 -8 0 44 -100 103 -199 22 -34
39 -67 39 -71 0 -5 3 -10 8 -12 10 -4 72 -97 72 -107 0 -5 3 -11 8 -13 4 -1
39 -46 78 -98 39 -52 81 -106 93 -120 12 -14 38 -45 59 -69 69 -83 324 -331
339 -331 3 0 11 -6 17 -14 37 -47 328 -254 476 -339 81 -47 417 -210 439 -213
3 0 15 -4 26 -8 11 -5 27 -10 35 -14 8 -3 18 -4 23 -4 4 1 7 -3 7 -10 0 -6 3
-9 6 -5 3 3 31 -4 62 -15 31 -12 70 -25 87 -29 16 -4 80 -21 140 -37 61 -17
124 -33 140 -36 17 -2 41 -7 55 -10 13 -3 42 -8 64 -12 22 -3 43 -7 46 -9 3
-2 34 -6 70 -10 36 -4 72 -9 82 -10 82 -16 465 -26 578 -15 38 4 60 2 60 -5 0
-6 3 -7 8 0 8 12 4 11 102 19 41 4 82 9 90 11 8 2 31 6 50 9 19 3 73 13 120
22 47 9 94 17 106 18 11 1 24 5 30 8 5 3 25 9 44 14 47 10 50 11 87 22 17 6
34 8 37 4 3 -3 6 -1 6 5 0 5 6 10 13 11 19 1 48 9 112 32 33 12 67 23 76 25 9
2 42 15 73 29 31 14 59 26 63 26 20 0 397 191 413 209 3 3 20 14 39 25 l33 19
-38 -69 c-20 -38 -57 -100 -81 -137 -24 -37 -43 -70 -43 -73 0 -3 -5 -10 -10
-17 -6 -7 -50 -66 -99 -132 -89 -120 -128 -168 -209 -254 -24 -25 -49 -53 -56
-61 -20 -26 -221 -209 -291 -265 -20 -16 -45 -37 -55 -45 -10 -8 -28 -22 -40
-30 -12 -8 -31 -23 -42 -32 -12 -10 -24 -18 -27 -18 -3 0 -20 -12 -36 -27 -16
-16 -30 -26 -30 -24 0 4 -85 -48 -95 -59 -8 -8 -111 -70 -116 -70 -2 0 -23
-11 -45 -26 -84 -53 -412 -207 -469 -220 -3 -1 -21 -7 -40 -15 -19 -7 -38 -12
-42 -11 -5 1 -8 -3 -8 -8 0 -6 -3 -9 -7 -8 -8 2 -113 -27 -143 -39 -18 -7 -8
-4 -140 -38 -58 -14 -116 -28 -130 -31 -14 -2 -45 -9 -70 -14 -40 -8 -61 -12
-135 -24 -19 -3 -116 -15 -180 -22 -29 -3 -233 -14 -325 -18 -25 -1 -55 2 -68
6 -16 6 -21 5 -16 -4 4 -6 3 -8 -2 -5 -5 3 -64 8 -129 12 -66 3 -131 8 -145
10 -14 2 -47 6 -75 10 -27 3 -75 10 -105 15 -30 5 -73 12 -95 16 -22 3 -58 9
-79 14 -22 5 -44 7 -48 4 -4 -3 -8 0 -8 5 0 6 -10 11 -23 11 -20 0 -190 46
-307 83 -19 6 -38 10 -42 9 -5 -1 -8 3 -8 8 0 6 -6 10 -12 8 -7 -1 -23 3 -35
10 -13 7 -23 10 -23 7 0 -3 -17 3 -39 14 -21 11 -41 17 -45 14 -3 -4 -6 -2 -6
4 0 5 -6 10 -12 10 -7 0 -35 11 -63 23 -27 13 -52 24 -55 25 -15 2 -188 90
-202 103 -10 8 -18 12 -18 7 0 -4 -6 -3 -12 3 -11 9 -46 29 -113 66 -11 6 -31
19 -45 27 -14 9 -49 31 -77 49 -29 18 -53 38 -53 43 0 6 -3 8 -6 4 -3 -3 -11
-1 -18 4 -6 5 -51 39 -101 75 -79 58 -123 94 -239 194 -50 44 -229 224 -283
286 -96 110 -152 178 -182 223 -14 20 -27 38 -31 41 -14 10 -95 135 -92 143 1
4 -3 7 -8 7 -6 0 -18 16 -27 35 -9 19 -20 35 -25 35 -4 0 -8 5 -8 11 0 6 -22
48 -48 93 -40 68 -143 268 -147 286 -1 3 -11 27 -24 54 -53 119 -112 282 -104
290 4 3 0 6 -7 6 -7 0 -10 3 -7 7 4 3 2 12 -4 20 -6 7 -9 13 -5 13 3 0 1 12
-5 28 -6 15 -12 34 -14 42 -2 8 -17 67 -33 130 -17 63 -33 135 -37 160 -4 25
-9 54 -12 65 -6 31 -10 56 -17 110 -4 28 -9 61 -11 75 -29 190 -35 600 -11
770 3 19 8 60 12 90 6 54 27 185 39 245 27 129 39 182 67 274 17 58 31 112 31
119 0 6 4 12 7 12 4 0 10 15 14 33 10 50 104 280 168 410 32 65 58 122 58 127
0 4 4 10 8 12 4 2 25 35 47 73 21 39 43 73 49 77 6 4 8 8 3 8 -9 0 122 194
134 198 5 2 9 8 9 13 0 8 44 69 81 113 8 9 19 22 24 29 81 99 115 138 146 170
21 20 37 37 35 37 -2 0 26 29 62 65 37 36 70 65 75 65 4 0 5 5 2 10 -3 6 -2
10 3 10 9 0 31 17 92 73 19 18 60 52 90 77 30 25 57 47 60 50 6 6 107 80 140
102 14 10 44 31 68 48 23 16 47 30 52 30 4 0 10 3 12 8 2 4 44 31 93 60 50 30
97 58 105 62 8 5 31 17 50 27 19 9 38 21 41 26 3 5 8 7 10 6 2 -2 47 18 99 43
123 58 140 65 140 52z m2800 -278 c41 -3 75 -5 75 -6 0 -1 16 -3 37 -6 20 -2
69 -10 110 -19 40 -9 84 -18 97 -21 76 -16 366 -137 391 -164 3 -3 25 -18 50
-34 108 -69 249 -205 350 -336 19 -24 43 -53 53 -65 10 -11 26 -32 35 -47 9
-16 20 -28 24 -28 4 0 8 -5 8 -11 0 -6 14 -30 30 -54 17 -24 30 -48 30 -54 0
-6 3 -11 8 -11 4 0 18 -21 31 -47 14 -27 32 -56 40 -67 9 -10 16 -21 15 -25
-1 -3 12 -35 29 -70 16 -35 33 -76 37 -90 5 -14 17 -50 28 -78 11 -29 18 -53
16 -53 -3 0 0 -8 5 -17 5 -10 12 -31 15 -48 3 -16 10 -50 16 -75 6 -25 13 -63
16 -85 3 -22 10 -67 14 -100 9 -60 6 -372 -3 -410 -3 -11 -8 -42 -11 -70 -4
-27 -13 -75 -21 -105 -8 -30 -16 -66 -19 -80 -7 -41 -11 -55 -16 -60 -3 -3
-16 -36 -28 -75 -28 -82 -52 -137 -65 -146 -5 -3 -8 -10 -8 -15 1 -13 -11 -48
-18 -54 -3 -3 -15 -23 -26 -45 -11 -22 -23 -44 -28 -50 -4 -5 -27 -40 -51 -77
-42 -64 -93 -131 -126 -168 -120 -134 -319 -310 -349 -310 -5 0 -11 -4 -13 -9
-4 -10 -134 -91 -147 -91 -5 0 -14 -7 -21 -15 -7 -8 -16 -13 -20 -10 -5 3 -14
-1 -22 -8 -7 -7 -17 -15 -23 -16 -5 -2 -19 -7 -30 -11 -11 -4 -45 -18 -75 -29
-30 -12 -64 -26 -75 -31 -17 -8 -85 -28 -120 -36 -5 -1 -28 -6 -50 -12 -77
-21 -174 -36 -227 -37 -21 0 -38 -3 -38 -6 0 -3 -62 -4 -137 -3 -76 1 -153 3
-170 3 -57 1 -223 31 -314 56 -367 104 -659 290 -906 580 -24 28 -49 57 -56
65 -14 16 -44 62 -101 153 -47 76 -116 213 -116 232 0 8 -4 15 -10 15 -5 0
-10 6 -10 14 0 7 -8 31 -17 52 -9 22 -17 44 -18 49 -1 6 -3 13 -5 18 -3 9 -5
15 -14 52 -4 17 -10 37 -13 45 -4 8 -7 20 -8 25 -1 6 -3 12 -4 15 -2 3 -4 14
-6 25 -8 52 -17 101 -20 115 -17 58 -23 339 -11 455 12 115 14 130 26 180 6
28 14 61 16 73 5 27 59 193 77 236 27 65 97 206 123 247 16 24 33 52 39 61 57
94 123 175 231 282 89 89 138 133 176 158 14 9 31 23 39 30 20 19 173 114 178
110 2 -2 7 0 10 5 17 25 235 117 371 157 52 16 102 31 110 34 8 3 18 5 21 4 3
0 23 4 45 9 21 5 57 12 79 15 22 3 64 9 92 13 29 4 88 9 130 10 43 1 79 4 80
5 2 1 22 1 45 -1 24 -1 77 -4 118 -7z"/>
</g>
</svg>
